<svg width="39" height="39" viewBox="0 0 39 39" fill="none" xmlns="http://www.w3.org/2000/svg">
<path d="M0 19.5C0 8.73045 8.73045 0 19.5 0V0C30.2696 0 39 8.73045 39 19.5V19.5C39 30.2696 30.2696 39 19.5 39V39C8.73045 39 0 30.2696 0 19.5V19.5Z" fill="white"/>
<path d="M27.041 9.9402L23.9242 12.3401L25.0452 16.1255L21.8052 13.8864L18.5652 16.1255L19.6862 12.3401L16.5694 9.9402L20.4993 9.82887L21.8052 6.11768L23.1111 9.82887L27.041 9.9402ZM31.3529 18.4883L29.3324 20.0346L30.0593 22.484L27.965 21.0367L25.8707 22.484L26.5975 20.0346L24.5771 18.4883L27.1149 18.4265L27.965 16.0142L28.815 18.4265L31.3529 18.4883ZM28.544 24.6118C29.5665 24.5128 30.663 25.9726 30.01 26.9004C29.6158 27.457 29.1969 27.9766 28.6795 28.4714C23.8626 33.3331 16.0643 33.3331 11.2597 28.4714C6.44274 23.6469 6.44274 15.8039 11.2597 10.9793C11.7525 10.4845 12.2699 10.0392 12.8243 9.64331C13.7482 8.98766 15.2019 10.0887 15.1034 11.1154C14.7707 14.6534 15.9534 18.3275 18.6637 21.0367C19.9445 22.3297 21.4951 23.3211 23.2037 23.9393C24.9123 24.5576 26.7363 24.7872 28.544 24.6118ZM26.5236 27.1107C22.907 26.9019 19.4904 25.3756 16.9143 22.818C14.241 20.1089 12.8119 16.6327 12.6148 13.1442C9.15304 17.0286 9.28855 22.9912 12.9967 26.7272C16.7172 30.4507 22.6553 30.5868 26.5236 27.1107Z" fill="black"/>
</svg>
