<svg width="35" height="37" viewBox="0 0 35 37" fill="none" xmlns="http://www.w3.org/2000/svg">
<g filter="url(#filter0_d_18_79)">
<path d="M11.6667 28.5H7.29175V13.5H11.6667V28.5ZM27.7084 28.5H23.3334V20.487C23.3334 18.399 22.6101 17.3595 21.1765 17.3595C20.0405 17.3595 19.3201 17.9415 18.9584 19.107C18.9584 21 18.9584 28.5 18.9584 28.5H14.5834C14.5834 28.5 14.6418 15 14.5834 13.5H18.0368L18.3036 16.5H18.394C19.2909 15 20.7245 13.983 22.6903 13.983C24.1851 13.983 25.394 14.4105 26.3172 15.4845C27.2461 16.56 27.7084 18.003 27.7084 20.0295V28.5Z" fill="#7D7D7D"/>
<path d="M9.47917 12C10.7276 12 11.7396 10.9926 11.7396 9.74999C11.7396 8.50734 10.7276 7.49998 9.47917 7.49998C8.23077 7.49998 7.21875 8.50734 7.21875 9.74999C7.21875 10.9926 8.23077 12 9.47917 12Z" fill="#7D7D7D"/>
</g>
<defs>
<filter id="filter0_d_18_79" x="-4" y="0" width="43" height="44" filterUnits="userSpaceOnUse" color-interpolation-filters="sRGB">
<feFlood flood-opacity="0" result="BackgroundImageFix"/>
<feColorMatrix in="SourceAlpha" type="matrix" values="0 0 0 0 0 0 0 0 0 0 0 0 0 0 0 0 0 0 127 0" result="hardAlpha"/>
<feOffset dy="4"/>
<feGaussianBlur stdDeviation="2"/>
<feComposite in2="hardAlpha" operator="out"/>
<feColorMatrix type="matrix" values="0 0 0 0 0 0 0 0 0 0 0 0 0 0 0 0 0 0 0.25 0"/>
<feBlend mode="normal" in2="BackgroundImageFix" result="effect1_dropShadow_18_79"/>
<feBlend mode="normal" in="SourceGraphic" in2="effect1_dropShadow_18_79" result="shape"/>
</filter>
</defs>
</svg>
